<?xml version="1.0" standalone="no"?>
<!DOCTYPE svg PUBLIC "-//W3C//DTD SVG 20010904//EN"
 "http://www.w3.org/TR/2001/REC-SVG-20010904/DTD/svg10.dtd">
<svg version="1.0" xmlns="http://www.w3.org/2000/svg"
 width="512.000000pt" height="512.000000pt" viewBox="0 0 512.000000 512.000000"
 preserveAspectRatio="xMidYMid meet">
<metadata>
Created by potrace 1.14, written by Peter Selinger 2001-2017
</metadata>
<g transform="translate(0.000000,512.000000) scale(0.100000,-0.100000)"
fill="#000000" stroke="none">
<path d="M1400 4545 c-435 -74 -727 -383 -786 -835 -3 -25 -8 -54 -9 -65 -2
-11 -4 -67 -4 -125 l-1 -105 -73 -27 c-259 -97 -444 -341 -504 -663 -10 -53
-10 -285 0 -356 13 -98 58 -236 104 -322 109 -204 286 -349 490 -401 84 -21
130 -25 295 -25 l147 -1 7 -37 c11 -64 12 -67 27 -109 47 -128 160 -252 287
-311 91 -43 118 -46 422 -50 l298 -4 107 -61 c60 -34 128 -72 153 -86 25 -14
173 -97 330 -185 449 -253 421 -240 473 -216 50 23 54 45 53 302 -1 132 2 241
7 244 4 2 96 6 205 8 146 2 210 7 246 19 207 67 355 238 391 449 l6 37 152 1
c174 1 181 2 261 19 171 36 343 147 441 284 84 119 152 271 170 381 3 22 10
63 15 90 13 70 4 308 -14 380 -20 83 -63 199 -93 254 -98 176 -245 306 -411
362 l-62 21 -1 101 c0 56 -2 116 -4 132 -18 145 -20 159 -51 258 -88 281 -296
504 -555 594 -181 63 -146 61 -1349 61 -835 -1 -1113 -4 -1170 -13z m2290
-193 c97 -17 100 -18 163 -40 247 -87 416 -308 466 -608 12 -72 21 -229 13
-251 -2 -8 -44 -11 -133 -11 l-129 -1 0 95 c0 52 0 95 0 97 0 1 -9 36 -21 77
-49 177 -168 307 -346 378 l-68 27 -1041 2 c-1146 2 -1103 4 -1233 -60 -87
-42 -195 -149 -238 -237 -46 -92 -63 -169 -63 -282 l0 -97 -132 2 -133 2 2
100 c5 164 52 362 104 437 11 14 19 30 19 34 0 4 21 35 46 68 121 158 291 248
514 272 30 3 56 7 57 8 1 0 471 1 1045 0 733 -1 1062 -4 1108 -12z m-80 -441
c104 -29 202 -118 241 -219 21 -56 21 -68 21 -542 0 -267 -1 -497 -1 -511 l-1
-27 -223 0 -223 0 -68 192 c-38 105 -82 229 -98 276 -48 139 -65 170 -100 185
-40 16 -77 10 -105 -18 -19 -19 -133 -337 -310 -870 -14 -43 -29 -74 -33 -70
-8 8 -19 35 -188 430 -55 128 -107 244 -116 257 -34 53 -131 42 -160 -17 -14
-31 -253 -612 -276 -672 l-11 -30 -34 55 c-128 212 -160 259 -180 270 -14 8
-99 12 -256 13 l-234 2 1 510 c1 501 2 511 23 567 45 116 165 212 283 227 29
3 492 6 1028 5 741 -1 986 -4 1020 -13z m-2553 -1375 c2 -456 -1 -712 -7 -716
-11 -7 -293 -5 -330 3 -218 43 -380 190 -464 419 -22 62 -27 80 -42 173 -24
140 3 346 64 475 55 118 114 189 212 254 122 80 211 102 427 101 l138 0 2
-709z m3379 696 c75 -16 131 -40 207 -90 346 -226 379 -861 61 -1167 -120
-115 -242 -156 -476 -159 l-158 -2 0 716 0 717 158 -2 c86 -2 180 -8 208 -13z
m-1306 -373 c0 -21 143 -403 155 -416 23 -23 87 -28 338 -27 217 0 247 -2 248
-15 0 -9 1 -194 1 -411 0 -382 -1 -397 -22 -452 -40 -108 -158 -206 -266 -224
-22 -3 -144 -6 -271 -7 l-233 -2 -27 -28 -28 -27 -1 -210 c0 -116 -3 -212 -5
-214 -2 -2 -197 105 -434 238 l-430 241 -320 5 -320 5 -55 28 c-65 34 -81 47
-131 110 -69 86 -72 112 -74 547 0 212 1 392 3 401 3 13 29 16 193 16 l189 0
33 -51 c18 -28 75 -118 125 -201 51 -82 98 -157 105 -166 29 -38 86 -45 131
-16 12 8 33 43 47 78 15 35 77 189 139 341 l114 278 152 -357 c162 -382 175
-403 239 -403 68 0 76 15 206 400 66 195 135 399 152 452 28 86 47 121 47 87z"/>
</g>
</svg>
